{"title":"That Metal Show S10E08 HDTV 1080i (Vinnie Paul, Styx)","uid":9288663,"size":5042300901,"categoryP":"video","categoryS":"hd___tv_shows","magnet":"?xt=urn:btih:9f63d5f467d3f95e25f666dfa41c92059b7b173f&amp;dn=That+Metal+Show+S10E08+HDTV+1080i+%28Vinnie+Paul%2C+Styx%29&amp;tr=udp%3A%2F%2Ftracker.openbittorrent.com%3A80&amp;tr=udp%3A%2F%2Fopen.demonii.com%3A1337&amp;tr=udp%3A%2F%2Ftracker.coppersurfer.tk%3A6969&amp;tr=udp%3A%2F%2Fexodus.desync.com%3A6969","seeders":1,"leechers":0,"uploader":"NotHuman","files":-1,"time":1386056989,"description":"Episodes of That Metal Show are finally being broadcast in HD on the Palladia channel.  Here is season 10 episode 8.  The guests are Tommy Shaw, James Young (Styx) and Vinnie Paul (Pantera, Damageplan, Hellyeah) with guest guitarist Steve Stevens (Billy Idol, Bozzio Levin Stevens).\n\nThis video was captured directly from a digital cable box's HDMI output to MPEG4 in 1080i using a Game Capture HD and an HDMI splitter to remove HDCP.  Since it was captured from cable, it is interlaced, and no re-encoding has been performed.  If you are playing back on a computer, please enable de-interlacing on your media player.  See below for complete technical specs on the video.\n\nScreenshots:\n\n &lt;a href=&quot;\nhttp://postimg.org/image/jvdlws5rf/&quot; rel=&quot;nofollow&quot; target=&quot;_NEW&quot;&gt;\nhttp://postimg.org/image/jvdlws5rf/&lt;/a&gt;\n &lt;a href=&quot;\nhttp://postimg.org/image/6ojkjikob/&quot; rel=&quot;nofollow&quot; target=&quot;_NEW&quot;&gt;\nhttp://postimg.org/image/6ojkjikob/&lt;/a&gt;\n &lt;a href=&quot;\nhttp://postimg.org/image/cbfxgzn6z/&quot; rel=&quot;nofollow&quot; target=&quot;_NEW&quot;&gt;\nhttp://postimg.org/image/cbfxgzn6z/&lt;/a&gt;\n &lt;a href=&quot;\nhttp://postimg.org/image/c18exn8kr/&quot; rel=&quot;nofollow&quot; target=&quot;_NEW&quot;&gt;\nhttp://postimg.org/image/c18exn8kr/&lt;/a&gt;\n &lt;a href=&quot;\nhttp://postimg.org/image/erhquu59n/&quot; rel=&quot;nofollow&quot; target=&quot;_NEW&quot;&gt;\nhttp://postimg.org/image/erhquu59n/&lt;/a&gt;\n\n\nGeneral\nComplete name                            : That Metal Show S10E08 HDTV 1080i.mp4\nFormat                                   : MPEG-4\nFormat profile                           : Base Media / Version 2\nCodec ID                                 : mp42\nFile size                                : 4.70 GiB\nDuration                                 : 44mn 2s\nOverall bit rate mode                    : Variable\nOverall bit rate                         : 15.3 Mbps\nEncoded date                             : UTC 2013-12-03 06:25:14\nTagged date                              : UTC 2013-12-03 06:28:10\n\nVideo\nID                                       : 1\nFormat                                   : AVC\nFormat/Info                              : Advanced Video Codec\nFormat profile                           : &lt;a class=&quot;__cf_email__&quot; href=&quot;/cdn-cgi/l/email-protection&quot; data-cfemail=&quot;d098b9b7b8909ce4fee0&quot;&gt;[email&amp;#160;protected]&lt;/a&gt;&lt;script cf-hash='f9e31' type=&quot;text/javascript&quot;&gt;\n/* &lt;![CDATA[ */!function(){try{var t=&quot;currentScript&quot;in document?document.currentScript:function(){for(var t=document.getElementsByTagName(&quot;script&quot;),e=t.length;e--;)if(t[e].getAttribute(&quot;cf-hash&quot;))return t[e]}();if(t&amp;&amp;t.previousSibling){var e,r,n,i,c=t.previousSibling,a=c.getAttribute(&quot;data-cfemail&quot;);if(a){for(e=&quot;&quot;,r=parseInt(a.substr(0,2),16),n=2;a.length-n;n+=2)i=parseInt(a.substr(n,2),16)^r,e+=String.fromCharCode(i);e=document.createTextNode(e),c.parentNode.replaceChild(e,c)}}}catch(u){}}();/* ]]&gt; */&lt;/script&gt;\nFormat settings, CABAC                   : Yes\nFormat settings, ReFrames                : 2 frames\nFormat settings, GOP                     : M=3, N=15\nCodec ID                                 : avc1\nCodec ID/Info                            : Advanced Video Coding\nDuration                                 : 44mn 2s\nSource duration                          : 44mn 3s\nBit rate mode                            : Variable\nBit rate                                 : 15.0 Mbps\nMaximum bit rate                         : 30.0 Mbps\nWidth                                    : 1 920 pixels\nHeight                                   : 1 080 pixels\nDisplay aspect ratio                     : 16:9\nFrame rate mode                          : Variable\nFrame rate                               : 29.970 fps\nMinimum frame rate                       : 14.985 fps\nMaximum frame rate                       : 30.000 fps\nColor space                              : YUV\nChroma subsampling                       : 4:2:0\nBit depth                                : 8 bits\nScan type                                : Interlaced\nScan order                               : Bottom Field First\nBits/(Pixel*Frame)                       : 0.242\nStream size                              : 4.62 GiB (98%)\nSource stream size                       : 4.63 GiB (99%)\nLanguage                                 : English\nEncoded date                             : UTC 2013-12-03 06:25:12\nTagged date                              : UTC 2013-12-03 06:28:10\nColor primaries                          : BT.709\nTransfer characteristics                 : BT.709\nMatrix coefficients                      : BT.709\n\nAudio\nID                                       : 2\nFormat                                   : AAC\nFormat/Info                              : Advanced Audio Codec\nFormat profile                           : LC\nCodec ID                                 : 40\nDuration                                 : 44mn 2s\nSource duration                          : 44mn 2s\nBit rate mode                            : Constant\nBit rate                                 : 220 Kbps\nNominal bit rate                         : 128 Kbps\nChannel(s)                               : 2 channels\nChannel positions                        : Front: L R\nSampling rate                            : 48.0 KHz\nCompression mode                         : Lossy\nStream size                              : 69.3 MiB (1%)\nSource stream size                       : 69.3 MiB (1%)\nLanguage                                 : English\nEncoded date                             : UTC 2013-12-03 06:25:12\nTagged date                              : UTC 2013-12-03 06:28:10","torrent":{"xt":"urn:btih:9f63d5f467d3f95e25f666dfa41c92059b7b173f","amp;dn":"That+Metal+Show+S10E08+HDTV+1080i+%28Vinnie+Paul%2C+Styx%29","amp;tr":["udp%3A%2F%2Ftracker.openbittorrent.com%3A80","udp%3A%2F%2Fopen.demonii.com%3A1337","udp%3A%2F%2Ftracker.coppersurfer.tk%3A6969","udp%3A%2F%2Fexodus.desync.com%3A6969"],"infoHash":"9f63d5f467d3f95e25f666dfa41c92059b7b173f","infoHashBuffer":{"type":"Buffer","data":[159,99,213,244,103,211,249,94,37,246,102,223,164,28,146,5,155,123,23,63]},"announce":[],"urlList":[]}}